<?xml version="1.0" encoding="utf-8"?>
<!-- Generator: Adobe Illustrator 16.0.3, SVG Export Plug-In . SVG Version: 6.00 Build 0)  -->
<!DOCTYPE svg PUBLIC "-//W3C//DTD SVG 1.1//EN" "http://www.w3.org/Graphics/SVG/1.1/DTD/svg11.dtd">
<svg version="1.1" id="Capa_1" xmlns="http://www.w3.org/2000/svg" xmlns:xlink="http://www.w3.org/1999/xlink" x="0px" y="0px"
	 width="885.17px" height="365.27px" viewBox="0 0 885.17 365.27" enable-background="new 0 0 885.17 365.27" xml:space="preserve">
<g id="Capa_1_1_">
	<g>
		<g>
			<g>
				<g>
					<path fill="#E6E7E2" d="M206.354,154.158h39.866c21.251,0.475,21.251,0.475,25.124,3.396c3.586,2.745,5.096,7.46,5.096,16.062
						c0,8.505-1.319,13.03-4.729,15.87c-3.301,2.922-6.046,3.682-13.791,3.872c-1.984,0.095-1.984,0.095-11.713,0.095h-31.455
						v23.711h-8.411v-63.006H206.354z M246.208,186.089c15.299,0,16.535-0.19,19.078-2.27c1.889-1.603,2.554-3.967,2.554-9.918
						c0-6.521-0.475-8.6-2.364-10.014c-2.553-1.889-3.492-2.079-19.267-2.363h-31.455v24.554h31.455V186.089z"/>
					<path fill="#E6E7E2" d="M291.264,154.158v55.641h49.689v7.365h-58.087v-63.006H291.264L291.264,154.158z"/>
					<path fill="#E6E7E2" d="M411.8,203.848h-50.913l-7.472,13.316h-9.54l35.709-63.006h13.411l35.612,63.006h-9.349L411.8,203.848z
						 M388.185,161.524h-3.398l-19.838,34.947h42.883L388.185,161.524z"/>
					<path fill="#E6E7E2" d="M446.367,154.158l55.071,55.26h1.983v-55.26h8.41v63.006h-14.268l-54.88-55.071h-1.888v55.071h-8.411
						v-63.006H446.367L446.367,154.158z"/>
					<path fill="#E6E7E2" d="M529.685,154.158v27.108h10.954l40.804-27.108h14.729l-46.839,30.694l49.298,32.312h-14.92
						l-43.072-28.521h-10.954v28.521h-8.409v-63.006H529.685L529.685,154.158z"/>
					<path fill="#E6E7E2" d="M672.029,154.158v7.365h-31.454v55.641h-8.41v-55.641h-31.634v-7.365H672.029z"/>
					<path fill="#E6E7E2" d="M749.386,159.076c2.555,2.459,3.684,5.476,4.442,11.808c0.381,3.396,0.665,9.823,0.665,15.015
						c0,15.49-1.317,22.569-4.822,26.36c-3.683,3.967-10.584,5.096-29.946,5.096c-9.444,0-23.425-0.381-27.014-0.761
						c-6.331-0.57-9.443-1.794-12.282-4.823c-3.777-3.872-4.727-9.349-4.727-26.359c0-16.903,1.507-23.615,6.141-27.202
						c3.111-2.364,6.236-3.208,14.267-3.683c3.872-0.284,14.824-0.569,20.871-0.569
						C738.528,153.968,745.335,155.013,749.386,159.076z M687.521,164.648c-2.27,2.079-3.207,8.03-3.207,20.122
						c0,13.981,0.665,19.457,2.649,21.631c1.603,1.796,4.062,2.46,10.584,2.841c3.491,0.283,14.171,0.569,18.697,0.569
						c9.159,0,17.948-0.475,22.201-1.224c3.683-0.665,5.666-2.648,6.427-6.426c0.569-3.398,1.033-10.204,1.033-16.062
						c0-7.079-0.38-14.633-0.95-17.473c-0.57-3.587-2.84-5.477-7.079-6.141c-4.812-0.76-9.729-0.939-25.791-0.939
						C696.406,161.524,689.979,162.378,687.521,164.648z"/>
					<path fill="#E6E7E2" d="M776.695,154.158l55.07,55.26h1.983v-55.26h8.412v63.006h-14.269l-54.88-55.071h-1.889v55.071h-8.41
						v-63.006H776.695L776.695,154.158z"/>
				</g>
				<g>
					<path fill="#E6E7E2" d="M877.119,216.309c-2.126,2.139-4.703,3.207-7.733,3.207c-3.017,0-5.595-1.068-7.709-3.207
						c-2.114-2.126-3.172-4.717-3.172-7.745c0-3.006,1.069-5.572,3.196-7.697c2.126-2.126,4.68-3.185,7.685-3.185
						c3.03,0,5.596,1.059,7.733,3.185c2.127,2.125,3.196,4.691,3.196,7.697C880.315,211.58,879.246,214.17,877.119,216.309z
						 M862.758,201.935c-1.829,1.83-2.731,4.051-2.731,6.641c0,2.613,0.902,4.847,2.719,6.688c1.831,1.843,4.039,2.768,6.641,2.768
						c2.615,0,4.823-0.925,6.642-2.768c1.828-1.841,2.731-4.074,2.731-6.688c0-2.602-0.914-4.811-2.731-6.641
						c-1.83-1.841-4.051-2.768-6.642-2.768C866.796,199.167,864.587,200.082,862.758,201.935z M869.186,202.54
						c1.484,0,2.576,0.143,3.266,0.429c1.235,0.51,1.853,1.532,1.853,3.04c0,1.07-0.392,1.865-1.164,2.364
						c-0.415,0.273-0.998,0.464-1.733,0.582c0.938,0.143,1.627,0.535,2.055,1.177c0.439,0.628,0.653,1.247,0.653,1.853v0.88
						c0,0.271,0.011,0.569,0.035,0.89c0.025,0.32,0.06,0.522,0.107,0.63l0.07,0.144h-1.971c-0.013-0.036-0.024-0.084-0.036-0.12
						c-0.011-0.036-0.022-0.083-0.022-0.131l-0.05-0.379v-0.951c0-1.377-0.379-2.293-1.127-2.744
						c-0.451-0.261-1.236-0.38-2.353-0.38h-1.663v4.717h-2.114v-11.986h4.194V202.54z M871.466,204.43
						c-0.535-0.297-1.391-0.452-2.555-0.452h-1.806v4.337h1.912c0.892,0,1.568-0.096,2.008-0.274
						c0.819-0.331,1.235-0.95,1.235-1.876C872.261,205.309,871.988,204.727,871.466,204.43z"/>
				</g>
			</g>
			<path fill="#E6E7E2" d="M187.906,71.433H79.44c-0.998,0-1.96,0.392-2.673,1.105L7.858,141.448
				c-1.188,1.188-0.344,3.22,1.331,3.22h123.683c6.724,0,10.086,8.125,5.334,12.876l-53.716,53.718
				c-4.241,4.239-6.629,10.002-6.629,16.001v59.299c0,1.675,2.031,2.518,3.219,1.33l69.456-69.457
				c0.357-0.355,0.559-0.83,0.559-1.328v-63.079c0-5.998,2.388-11.759,6.629-16l40.862-40.839
				C208.088,87.684,201.354,71.433,187.906,71.433z"/>
		</g>
		<g>
			<path fill="#E6E7E2" d="M709.806,244.105v29.246h-3.303l-15.798-23.983v23.983h-3.303v-29.246h3.303l15.798,23.948v-23.948
				H709.806z"/>
			<path fill="#E6E7E2" d="M750.503,246.825h-15.882v10.276h12.116v2.72h-12.116v10.786h15.882v2.756h-19.185v-29.247h19.185
				V246.825z"/>
			<path fill="#E6E7E2" d="M780.343,273.364h-3.636l-8.101-29.247h3.517l6.521,25.195l7.317-25.195h3.718l7.021,25.16l6.558-25.16
				h3.551l-8.362,29.247h-3.718l-7.056-24.232L780.343,273.364z"/>
			<path fill="#E6E7E2" d="M826.504,266.092c0.189,0.809,0.57,1.581,1.128,2.295c0.559,0.723,1.318,1.305,2.28,1.756
				c0.964,0.452,2.139,0.667,3.527,0.667c1.949,0,3.47-0.499,4.55-1.485c1.082-0.986,1.628-2.21,1.628-3.659
				c0-1.164-0.284-2.103-0.854-2.804c-0.571-0.701-1.331-1.247-2.28-1.65c-0.95-0.404-1.983-0.748-3.112-1.046
				c-1.129-0.297-2.258-0.618-3.386-0.962c-1.129-0.345-2.162-0.808-3.112-1.378s-1.711-1.342-2.281-2.293
				c-0.569-0.962-0.855-2.232-0.855-3.824c0-1.558,0.393-2.936,1.164-4.134c0.785-1.2,1.877-2.127,3.304-2.803
				c1.426-0.667,3.088-0.999,5.012-0.999c2.424,0,4.419,0.534,5.999,1.592c1.568,1.058,2.649,2.411,3.244,4.05l-3.054,1.165
				c-0.309-0.975-0.998-1.876-2.091-2.696c-1.081-0.819-2.506-1.247-4.264-1.271c-1.641,0-3.054,0.427-4.219,1.271
				c-1.163,0.855-1.757,2.078-1.757,3.693c0,1.177,0.297,2.104,0.88,2.78c0.58,0.678,1.341,1.224,2.28,1.628
				c0.938,0.403,1.958,0.748,3.087,1.045s2.258,0.618,3.386,0.985c1.129,0.369,2.162,0.832,3.112,1.401
				c0.95,0.57,1.712,1.344,2.28,2.316c0.571,0.976,0.856,2.233,0.856,3.767c0,1.366-0.356,2.672-1.069,3.907
				s-1.782,2.258-3.196,3.054c-1.425,0.796-3.171,1.188-5.262,1.188c-2.59,0-4.788-0.593-6.581-1.771
				c-1.793-1.188-2.958-2.72-3.492-4.619L826.504,266.092z"/>
		</g>
	</g>
</g>
<g id="Browser">
</g>
</svg>
