<?xml version="1.0" encoding="utf-8"?>
<!-- Generator: Adobe Illustrator 28.1.0, SVG Export Plug-In . SVG Version: 6.00 Build 0)  -->
<svg version="1.1" id="Layer_1" xmlns="http://www.w3.org/2000/svg" xmlns:xlink="http://www.w3.org/1999/xlink" x="0px" y="0px"
	 viewBox="0 0 885.2 365.3" style="enable-background:new 0 0 885.2 365.3;" xml:space="preserve">
<style type="text/css">
	.st0{fill:#E6E7E2;}
</style>
<g id="Capa_1">
	<g>
		<g>
			<g>
				<g>
					<path class="st0" d="M258.9,161h33.6c17.9,0.4,17.9,0.4,21.1,2.9c3,2.3,4.3,6.3,4.3,13.5c0,7.2-1.1,11-4,13.4
						c-2.8,2.5-5.1,3.1-11.6,3.3c-1.7,0.1-1.7,0.1-9.9,0.1h-26.5v20h-7.1L258.9,161L258.9,161z M292.4,187.8
						c12.9,0,13.9-0.2,16.1-1.9c1.6-1.4,2.1-3.3,2.1-8.4c0-5.5-0.4-7.2-2-8.4c-2.1-1.6-2.9-1.8-16.2-2h-26.5v20.7L292.4,187.8
						L292.4,187.8z"/>
					<path class="st0" d="M330.4,161v46.8h41.8v6.2h-48.9v-53L330.4,161L330.4,161z"/>
					<path class="st0" d="M431.8,202.8H389l-6.3,11.2h-8l30.1-53H416l30,53h-7.9L431.8,202.8z M411.9,167.2h-2.9l-16.7,29.4h36.1
						L411.9,167.2z"/>
					<path class="st0" d="M460.9,161l46.4,46.5h1.7V161h7.1v53h-12l-46.2-46.4h-1.6V214h-7.1v-53L460.9,161L460.9,161z"/>
					<path class="st0" d="M531.1,161v22.8h9.2l34.3-22.8H587l-39.4,25.8l41.5,27.2h-12.6l-36.3-24h-9.2v24H524v-53L531.1,161
						L531.1,161z"/>
					<path class="st0" d="M650.9,161v6.2h-26.5V214h-7.1v-46.8h-26.6V161H650.9z"/>
					<path class="st0" d="M716,165.1c2.2,2.1,3.1,4.6,3.7,9.9c0.3,2.9,0.6,8.3,0.6,12.6c0,13-1.1,19-4.1,22.2
						c-3.1,3.3-8.9,4.3-25.2,4.3c-8,0-19.7-0.3-22.7-0.6c-5.3-0.5-8-1.5-10.3-4.1c-3.2-3.3-4-7.9-4-22.2c0-14.2,1.3-19.9,5.2-22.9
						c2.6-2,5.2-2.7,12-3.1c3.3-0.2,12.5-0.5,17.6-0.5C706.9,160.8,712.6,161.7,716,165.1z M663.9,169.8c-1.9,1.8-2.7,6.8-2.7,16.9
						c0,11.8,0.6,16.4,2.2,18.2c1.3,1.5,3.4,2.1,8.9,2.4c2.9,0.2,11.9,0.5,15.7,0.5c7.7,0,15.1-0.4,18.7-1c3.1-0.6,4.8-2.2,5.4-5.4
						c0.5-2.9,0.9-8.6,0.9-13.5c0-6-0.3-12.3-0.8-14.7c-0.5-3-2.4-4.6-6-5.2c-4-0.6-8.2-0.8-21.7-0.8
						C671.4,167.2,666,167.9,663.9,169.8z"/>
					<path class="st0" d="M739,161l46.4,46.5h1.7V161h7.1v53h-12l-46.2-46.4h-1.6V214h-7.1v-53L739,161L739,161z"/>
				</g>
			</g>
			<path class="st0" d="M243.3,91.3H152c-0.8,0-1.6,0.3-2.2,0.9l-58,58c-1,1-0.3,2.7,1.1,2.7H197c5.7,0,8.5,6.8,4.5,10.8L156.3,209
				c-3.6,3.6-5.6,8.4-5.6,13.5v49.9c0,1.4,1.7,2.1,2.7,1.1l58.5-58.5c0.3-0.3,0.5-0.7,0.5-1.1v-53.1c0-5.1,2-9.9,5.6-13.5l34.4-34.4
				C260.3,105,254.7,91.3,243.3,91.3z"/>
		</g>
		<g>
			<path class="st0" d="M682.7,236.7v24.6h-2.8l-13.3-20.2v20.2h-2.8v-24.6h2.8l13.3,20.2v-20.2H682.7z"/>
			<path class="st0" d="M717,239h-13.4v8.6h10.2v2.3h-10.2v9.1H717v2.3h-16.2v-24.6H717V239z"/>
			<path class="st0" d="M742.1,261.3H739l-6.8-24.6h3l5.5,21.2l6.2-21.2h3.1l5.9,21.2l5.5-21.2h3l-7,24.6h-3.1l-5.9-20.4
				L742.1,261.3z"/>
			<path class="st0" d="M780.9,255.2c0.2,0.7,0.5,1.3,1,1.9c0.5,0.6,1.1,1.1,1.9,1.5s1.8,0.6,3,0.6c1.6,0,2.9-0.4,3.8-1.2
				c0.9-0.8,1.4-1.9,1.4-3.1c0-1-0.2-1.8-0.7-2.4s-1.1-1.1-1.9-1.4s-1.7-0.6-2.6-0.9s-1.9-0.5-2.8-0.8c-1-0.3-1.8-0.7-2.6-1.2
				c-0.8-0.5-1.4-1.1-1.9-1.9c-0.5-0.8-0.7-1.9-0.7-3.2c0-1.3,0.3-2.5,1-3.5c0.7-1,1.6-1.8,2.8-2.4c1.2-0.6,2.6-0.8,4.2-0.8
				c2,0,3.7,0.4,5,1.3c1.3,0.9,2.2,2,2.7,3.4l-2.6,1c-0.3-0.8-0.8-1.6-1.8-2.3c-0.9-0.7-2.1-1.1-3.6-1.1c-1.4,0-2.6,0.4-3.5,1.1
				c-1,0.7-1.5,1.8-1.5,3.1c0,1,0.2,1.8,0.7,2.3c0.5,0.6,1.1,1,1.9,1.4s1.7,0.6,2.6,0.9c1,0.2,1.9,0.5,2.8,0.8s1.8,0.7,2.6,1.2
				s1.4,1.1,1.9,1.9c0.5,0.8,0.7,1.9,0.7,3.2c0,1.1-0.3,2.3-0.9,3.3c-0.6,1-1.5,1.9-2.7,2.6c-1.2,0.7-2.7,1-4.4,1
				c-2.2,0-4-0.5-5.5-1.5c-1.5-1-2.5-2.3-2.9-3.9L780.9,255.2z"/>
		</g>
	</g>
</g>
<g id="Browser">
</g>
</svg>
